<svg width="111.43mm" height="96.75mm" version="1.1" viewBox="0 0 111.43 96.75" xmlns="http://www.w3.org/2000/svg">
 <g transform="translate(.71322 .86765)">
  <g>
   <path d="m45.98 0.13229-45.827 79.375 73.323-6.2e-5 -9.1653-15.875-36.662 3e-6 36.662-63.5z" fill="#f92672"/>
   <path d="m27.649 63.632 36.662-63.5 45.827 79.375-9.1655 15.875-36.662-63.5-18.331 31.75z" fill="#66d9ef"/>
   <path d="m55.145 47.757 9.1654-15.875 36.662 63.5-91.654 1e-6 -9.1655-15.875 73.323-7e-5z" fill="#a6e22e"/>
  </g>
  <g fill="none" stroke="#f8f8f2">
   <path d="m55.145 47.757 18.331 31.75-73.323 6.8e-5 45.827-79.375 18.331 6.182e-5"/>
   <path d="m45.98 63.632 18.331-31.75 36.662 63.5-91.654 1e-6 -9.1655-15.875"/>
   <path d="m64.311 63.632-36.662 1e-6 36.662-63.5 45.827 79.375-9.1654 15.875"/>
  </g>
 </g>
</svg>
